<?xml version="1.0" encoding="UTF-8" standalone="no"?>
<svg xmlns:dc="http://purl.org/dc/elements/1.1/" xmlns:cc="http://creativecommons.org/ns#" xmlns:rdf="http://www.w3.org/1999/02/22-rdf-syntax-ns#" xmlns:svg="http://www.w3.org/2000/svg" xmlns="http://www.w3.org/2000/svg" viewBox="0 0 293.33334 63.672531" height="63.672531" width="293.33334" xml:space="preserve" id="svg2" version="1.1">
  <metadata id="metadata8"></metadata>
  <defs id="defs6">
    <clipPath id="clipPath18">
      <path id="path16" d="M 0,47.754 H 220 V 0 H 0 Z"></path>
    </clipPath>
    <linearGradient id="linearGradient70" spreadMethod="pad" gradientTransform="matrix(-9.7982206,5.8658094,5.8658094,9.7982206,103.33241,38.52705)" gradientUnits="userSpaceOnUse" y2="0" x2="1" y1="0" x1="0">
      <stop id="stop60" offset="0" style="stop-opacity:1;stop-color:#009852"></stop>
      <stop id="stop62" offset="0.213483" style="stop-opacity:1;stop-color:#009852"></stop>
      <stop id="stop64" offset="0.32729186" style="stop-opacity:1;stop-color:#009852"></stop>
      <stop id="stop66" offset="0.999365" style="stop-opacity:1;stop-color:#00663d"></stop>
      <stop id="stop68" offset="1" style="stop-opacity:1;stop-color:#00663d"></stop>
    </linearGradient>
    <linearGradient id="linearGradient94" spreadMethod="pad" gradientTransform="matrix(-7.1224403,4.5370226,4.5370226,7.1224403,102.56368,38.097282)" gradientUnits="userSpaceOnUse" y2="0" x2="1" y1="0" x1="0">
      <stop id="stop86" offset="0" style="stop-opacity:1;stop-color:#008c4d"></stop>
      <stop id="stop88" offset="0.005618" style="stop-opacity:1;stop-color:#008c4d"></stop>
      <stop id="stop90" offset="0.75474373" style="stop-opacity:1;stop-color:#00653d"></stop>
      <stop id="stop92" offset="1" style="stop-opacity:1;stop-color:#00653d"></stop>
    </linearGradient>
    <linearGradient id="linearGradient120" spreadMethod="pad" gradientTransform="matrix(-13.16339,3.7477775,3.7477775,13.16339,101.72784,37.67271)" gradientUnits="userSpaceOnUse" y2="0" x2="1" y1="0" x1="0">
      <stop id="stop110" offset="0" style="stop-opacity:1;stop-color:#009852"></stop>
      <stop id="stop112" offset="0.210674" style="stop-opacity:1;stop-color:#009852"></stop>
      <stop id="stop114" offset="0.3243379" style="stop-opacity:1;stop-color:#009852"></stop>
      <stop id="stop116" offset="0.995555" style="stop-opacity:1;stop-color:#00653d"></stop>
      <stop id="stop118" offset="1" style="stop-opacity:1;stop-color:#00653d"></stop>
    </linearGradient>
    <linearGradient id="linearGradient146" spreadMethod="pad" gradientTransform="matrix(-14.294717,2.2494326,2.2494326,14.294717,101.85355,37.949463)" gradientUnits="userSpaceOnUse" y2="0" x2="1" y1="0" x1="0">
      <stop id="stop136" offset="0" style="stop-opacity:1;stop-color:#008c4d"></stop>
      <stop id="stop138" offset="0.005618" style="stop-opacity:1;stop-color:#008c4d"></stop>
      <stop id="stop140" offset="0.60595332" style="stop-opacity:1;stop-color:#00653d"></stop>
      <stop id="stop142" offset="0.820225" style="stop-opacity:1;stop-color:#00653d"></stop>
      <stop id="stop144" offset="1" style="stop-opacity:1;stop-color:#00653d"></stop>
    </linearGradient>
    <linearGradient id="linearGradient172" spreadMethod="pad" gradientTransform="matrix(-8.4889708,-2.2679775,-2.2679775,8.4889708,113.37226,40.381947)" gradientUnits="userSpaceOnUse" y2="0" x2="1" y1="0" x1="0">
      <stop id="stop162" offset="0" style="stop-opacity:1;stop-color:#009852"></stop>
      <stop id="stop164" offset="0.213483" style="stop-opacity:1;stop-color:#009852"></stop>
      <stop id="stop166" offset="0.31665681" style="stop-opacity:1;stop-color:#009852"></stop>
      <stop id="stop168" offset="0.925927" style="stop-opacity:1;stop-color:#00653d"></stop>
      <stop id="stop170" offset="1" style="stop-opacity:1;stop-color:#00653d"></stop>
    </linearGradient>
    <linearGradient id="linearGradient196" spreadMethod="pad" gradientTransform="matrix(-6.8716106,-0.9686535,-0.9686535,6.8716106,111.64099,39.188931)" gradientUnits="userSpaceOnUse" y2="0" x2="1" y1="0" x1="0">
      <stop id="stop188" offset="0" style="stop-opacity:1;stop-color:#008c4d"></stop>
      <stop id="stop190" offset="0.46308475" style="stop-opacity:1;stop-color:#00653d"></stop>
      <stop id="stop192" offset="0.926966" style="stop-opacity:1;stop-color:#00653d"></stop>
      <stop id="stop194" offset="1" style="stop-opacity:1;stop-color:#00653d"></stop>
    </linearGradient>
    <clipPath id="clipPath206">
      <path id="path204" d="M 0,47.754 H 220 V 0 H 0 Z"></path>
    </clipPath>
    <linearGradient id="linearGradient232" spreadMethod="pad" gradientTransform="matrix(-18.042553,2.3810155,2.3810155,18.042553,120.54125,35.184593)" gradientUnits="userSpaceOnUse" y2="0" x2="1" y1="0" x1="0">
      <stop id="stop224" offset="0" style="stop-opacity:1;stop-color:#009852"></stop>
      <stop id="stop226" offset="0.211828" style="stop-opacity:1;stop-color:#009852"></stop>
      <stop id="stop228" offset="0.3259685" style="stop-opacity:1;stop-color:#009852"></stop>
      <stop id="stop230" offset="1" style="stop-opacity:1;stop-color:#00653d"></stop>
    </linearGradient>
    <linearGradient id="linearGradient258" spreadMethod="pad" gradientTransform="matrix(-11.125638,2.698153,2.698153,11.125638,117.77344,34.401916)" gradientUnits="userSpaceOnUse" y2="0" x2="1" y1="0" x1="0">
      <stop id="stop248" offset="0" style="stop-opacity:1;stop-color:#008c4d"></stop>
      <stop id="stop250" offset="0.211309" style="stop-opacity:1;stop-color:#008c4d"></stop>
      <stop id="stop252" offset="0.32544935" style="stop-opacity:1;stop-color:#008c4d"></stop>
      <stop id="stop254" offset="0.99948" style="stop-opacity:1;stop-color:#00653d"></stop>
      <stop id="stop256" offset="1" style="stop-opacity:1;stop-color:#00653d"></stop>
    </linearGradient>
    <clipPath id="clipPath268">
      <path id="path266" d="M 0,47.754 H 220 V 0 H 0 Z"></path>
    </clipPath>
    <linearGradient id="linearGradient308" spreadMethod="pad" gradientTransform="matrix(-2.2281344,-2.6005924,-2.6005924,2.2281344,100.78766,39.316315)" gradientUnits="userSpaceOnUse" y2="0" x2="1" y1="0" x1="0">
      <stop id="stop298" offset="0" style="stop-opacity:1;stop-color:#54ab75"></stop>
      <stop id="stop300" offset="0.308989" style="stop-opacity:1;stop-color:#54ab75"></stop>
      <stop id="stop302" offset="0.43574607" style="stop-opacity:1;stop-color:#54ab75"></stop>
      <stop id="stop304" offset="0.842697" style="stop-opacity:1;stop-color:#00653d"></stop>
      <stop id="stop306" offset="1" style="stop-opacity:1;stop-color:#00653d"></stop>
    </linearGradient>
    <linearGradient id="linearGradient334" spreadMethod="pad" gradientTransform="matrix(-0.4083771,-6.3844614,-6.3844614,0.4083771,100.19056,41.887375)" gradientUnits="userSpaceOnUse" y2="0" x2="1" y1="0" x1="0">
      <stop id="stop324" offset="0" style="stop-opacity:1;stop-color:#54ab75"></stop>
      <stop id="stop326" offset="0.307199" style="stop-opacity:1;stop-color:#54ab75"></stop>
      <stop id="stop328" offset="0.43410689" style="stop-opacity:1;stop-color:#54ab75"></stop>
      <stop id="stop330" offset="0.841542" style="stop-opacity:1;stop-color:#00653d"></stop>
      <stop id="stop332" offset="1" style="stop-opacity:1;stop-color:#00653d"></stop>
    </linearGradient>
    <linearGradient id="linearGradient360" spreadMethod="pad" gradientTransform="matrix(0.4913745,-3.2068021,-3.2068021,-0.4913745,98.047295,39.833282)" gradientUnits="userSpaceOnUse" y2="0" x2="1" y1="0" x1="0">
      <stop id="stop350" offset="0" style="stop-opacity:1;stop-color:#5ab97e"></stop>
      <stop id="stop352" offset="0.308989" style="stop-opacity:1;stop-color:#5ab97e"></stop>
      <stop id="stop354" offset="0.47043738" style="stop-opacity:1;stop-color:#5ab97e"></stop>
      <stop id="stop356" offset="0.988764" style="stop-opacity:1;stop-color:#00653d"></stop>
      <stop id="stop358" offset="1" style="stop-opacity:1;stop-color:#00653d"></stop>
    </linearGradient>
    <clipPath id="clipPath370">
      <path id="path368" d="M 0,47.754 H 220 V 0 H 0 Z"></path>
    </clipPath>
  </defs>
  <g transform="matrix(1.3333333,0,0,-1.3333333,0,63.672533)" id="g10">
    <g id="g12">
      <g clip-path="url(#clipPath18)" id="g14">
        <g transform="translate(20.2896,25.9157)" id="g20">
          <path id="path22" style="fill:#009852;fill-opacity:1;fill-rule:nonzero;stroke:none" d="m 0,0 c -5.421,2.17 -6.288,2.99 -6.288,4.551 0,1.442 1.361,2.373 3.466,2.373 2.205,0 4.525,-0.99 7.093,-3.028 L 4.742,3.521 9.492,9.779 9.08,10.141 c -3.217,2.827 -7.263,4.322 -11.702,4.322 -7.096,0 -12.052,-4.336 -12.052,-10.543 V 3.823 c 0,-6.538 4.73,-8.846 10.447,-10.992 5.218,-1.923 5.622,-2.896 5.622,-4.108 0,-1.704 -1.501,-2.762 -3.917,-2.762 -3.51,0 -6.295,1.976 -8.329,3.697 l -0.454,0.384 -5.044,-6.087 0.417,-0.378 c 3.664,-3.325 8.409,-5.155 13.36,-5.155 7.388,0 12.353,4.335 12.353,10.786 v 0.097 C 9.781,-4.897 6.035,-2.304 0,0"></path>
        </g>
        <g transform="translate(44.9981,22.9841)" id="g24">
          <path id="path26" style="fill:#009852;fill-opacity:1;fill-rule:nonzero;stroke:none" d="m 0,0 -3.404,-7.909 h 6.908 z m -7.559,-17.62 h -8.91 L 0.1,17.021 c 0.15,0.35 0.45,0.35 0.601,0 L 17.22,-17.62 H 7.809 l -1.302,2.904 H -6.307 Z"></path>
        </g>
        <g transform="translate(68.9751,5.0143)" id="g28">
          <path id="path30" style="fill:#009852;fill-opacity:1;fill-rule:nonzero;stroke:none" d="m 0,0 c -0.15,-0.301 -0.45,-0.301 -0.601,0 l -16.018,34.389 h 9.711 L 0.05,18.521 6.808,34.389 h 9.26 z"></path>
        </g>
        <g transform="translate(108.0201,22.384)" id="g32">
          <path id="path34" style="fill:#ef4138;fill-opacity:1;fill-rule:nonzero;stroke:none" d="m 0,0 c 0,5.356 -3.254,9.511 -8.96,9.511 -5.707,0 -8.961,-4.155 -8.961,-9.511 0,-5.356 3.254,-9.561 8.961,-9.561 C -3.254,-9.561 0,-5.356 0,0 m -27.231,0 c 0,10.261 8.46,17.419 18.271,17.419 9.811,0 18.271,-7.158 18.271,-17.419 0,-10.262 -8.46,-17.471 -18.271,-17.471 -9.811,0 -18.271,7.209 -18.271,17.471"></path>
        </g>
        <g transform="translate(118.732,18.529)" id="g36">
          <path id="path38" style="fill:#009852;fill-opacity:1;fill-rule:nonzero;stroke:none" d="M 0,0 V 20.875 H 9.11 V 0.1 c 0,-3.853 1.802,-6.056 5.657,-6.056 3.854,0 5.656,2.203 5.656,6.056 v 20.775 h 9.11 V 0 c 0,-9.16 -6.257,-13.666 -14.766,-13.666 C 6.256,-13.666 0,-9.16 0,0"></path>
        </g>
        <g transform="translate(163.7818,20.4313)" id="g40">
          <path id="path42" style="fill:#009852;fill-opacity:1;fill-rule:nonzero;stroke:none" d="M 0,0 C 4.104,0 5.606,2.302 5.606,5.606 5.606,8.91 4.104,11.264 0,11.264 H -3.354 V 0 Z M 14.667,-15.067 H 4.806 l -4.755,7.809 h -3.405 v -7.809 h -9.11 V 18.972 H 0.45 c 9.161,0 14.317,-5.807 14.317,-13.366 0,-4.905 -2.153,-8.81 -6.157,-11.012 z"></path>
        </g>
        <g transform="translate(194.0161,22.9841)" id="g44">
          <path id="path46" style="fill:#009852;fill-opacity:1;fill-rule:nonzero;stroke:none" d="M 0,0 -3.404,-7.909 H 3.504 Z M -7.559,-17.62 H -16.47 L 0.101,17.021 c 0.149,0.35 0.449,0.35 0.599,0 L 17.22,-17.62 H 7.809 l -1.301,2.904 H -6.308 Z"></path>
        </g>
      </g>
    </g>
    <g id="g48">
      <g id="g50">
        <g id="g56">
          <g id="g58">
            <path id="path72" style="fill:url(#linearGradient70);stroke:none" d="m 95.012,44.844 c -0.109,-0.117 -0.265,-0.296 -0.39,-0.585 v 0 c -0.124,-0.282 -0.166,-0.721 0.007,-1.147 v 0 c 0.163,-0.423 0.473,-0.801 0.819,-1.14 v 0 c 0.701,-0.674 1.57,-1.233 2.4,-1.752 v 0 c 0.832,-0.516 1.635,-0.986 2.277,-1.386 v 0 c 0.555,-0.341 1.045,-0.589 1.443,-0.744 v 0 c 0.396,-0.151 0.731,-0.238 0.966,-0.097 v 0 c 0.23,0.136 0.281,0.554 0.034,1.067 v 0 c -0.242,0.51 -0.761,1.056 -1.407,1.45 v 0 c -0.705,0.438 -1.593,0.816 -2.494,1.158 v 0 c -0.9,0.348 -1.826,0.663 -2.569,1.05 v 0 c -0.369,0.193 -0.689,0.408 -0.899,0.652 v 0 c -0.215,0.242 -0.299,0.525 -0.284,0.791 v 0 c 0.016,0.262 0.1,0.484 0.163,0.629 v 0 c 0.065,0.148 0.11,0.227 0.11,0.227 v 0 c 0,-0.001 -0.066,-0.057 -0.176,-0.173"></path>
          </g>
        </g>
      </g>
    </g>
    <g id="g74">
      <g id="g76">
        <g id="g82">
          <g id="g84">
            <path id="path96" style="fill:url(#linearGradient94);stroke:none" d="m 95.864,42.217 c 0,0 0,0 0,0 v 0 c 0,0 0,0 0,0 v 0 c 0,0 0,0 0,0 m -0.001,0 c 0.001,0 0.001,0 0.001,0 v 0 c 0,0 0,0 0,0 v 0 c 0,0 0,0 -0.001,0 m 1.629,-1.348 c 1.022,-0.65 2.47,-1.072 3.333,-1.672 v 0 c 0.754,-0.494 1.163,-1.137 1.264,-1.08 v 0 c 0.046,0.025 0,0.222 -0.165,0.502 v 0 c -0.162,0.278 -0.465,0.628 -0.877,0.904 v 0 c -0.903,0.628 -2.354,0.947 -3.414,1.494 v 0 c -1.065,0.517 -1.75,1.189 -1.769,1.2 v 0 c 0.018,-0.012 0.604,-0.728 1.628,-1.348"></path>
          </g>
        </g>
      </g>
    </g>
    <g id="g98">
      <g id="g100">
        <g id="g106">
          <g id="g108">
            <path id="path122" style="fill:url(#linearGradient120);stroke:none" d="m 86.208,44.416 c 0.002,0 0.236,-0.492 0.688,-1.28 v 0 c 0.459,-0.783 1.121,-1.874 2.158,-2.962 v 0 c 0.519,-0.54 1.146,-1.074 1.891,-1.506 v 0 c 0.743,-0.435 1.599,-0.743 2.433,-0.922 v 0 c 0.836,-0.184 1.64,-0.265 2.372,-0.332 v 0 c 0.736,-0.066 1.41,-0.117 2.024,-0.173 v 0 c 1.051,-0.093 1.993,-0.117 2.728,-0.048 v 0 c 0.732,0.07 1.252,0.245 1.359,0.595 v 0 c 0.105,0.345 -0.237,0.802 -0.931,1.213 v 0 c -0.688,0.41 -1.743,0.754 -2.921,0.856 v 0 c -0.769,0.077 -1.625,0.068 -2.485,0.058 v 0 c -0.574,-0.006 -1.149,-0.013 -1.701,0.007 v 0 c -0.693,0.029 -1.359,0.12 -2.003,0.321 v 0 c -0.643,0.198 -1.265,0.506 -1.834,0.865 v 0 c -1.144,0.725 -2.08,1.606 -2.738,2.243 v 0 c -0.652,0.643 -1.036,1.065 -1.04,1.065 v 0 c 0,0 0,0 0,0"></path>
          </g>
        </g>
      </g>
    </g>
    <g id="g124">
      <g id="g126">
        <g id="g132">
          <g id="g134">
            <path id="path148" style="fill:url(#linearGradient146);stroke:none" d="m 90.082,40.335 c 0.011,0 0.25,-0.3 0.765,-0.649 v 0 c 0.516,-0.36 1.34,-0.719 2.317,-0.912 v 0 c 1.962,-0.408 4.42,-0.241 6.205,-0.376 v 0 c 0.769,-0.052 1.448,-0.153 1.93,-0.277 v 0 c 0.48,-0.118 0.769,-0.247 0.804,-0.188 v 0 c 0.033,0.049 -0.209,0.286 -0.701,0.497 v 0 c -0.487,0.214 -1.208,0.373 -2,0.426 v 0 c -0.747,0.059 -1.621,0.041 -2.532,0.023 v 0 c -1.201,-0.024 -2.464,-0.048 -3.58,0.106 v 0 c -0.981,0.127 -1.827,0.42 -2.377,0.745 v 0 c -0.547,0.313 -0.819,0.605 -0.831,0.605 v 0 c 0,0 0,0 0,0 m 0,0 c 0,0 0,0 0,0 v 0 c 0,0 0,0 0,0 v 0 c 0,0 0,0 0,0"></path>
          </g>
        </g>
      </g>
    </g>
    <g id="g150">
      <g id="g152">
        <g id="g158">
          <g id="g160">
            <path id="path174" style="fill:url(#linearGradient172);stroke:none" d="m 112.532,39.363 c -0.43,-0.289 -1.168,-0.367 -2.013,-0.309 v 0 c -1.696,0.109 -3.825,0.607 -5.586,0.528 v 0 c -0.749,-0.029 -1.475,-0.243 -1.949,-0.588 v 0 c -0.235,-0.17 -0.399,-0.368 -0.472,-0.544 v 0 c -0.075,-0.177 -0.06,-0.331 0.019,-0.44 v 0 c 0.17,-0.218 0.487,-0.28 0.885,-0.341 v 0 c 0.404,-0.054 0.947,-0.08 1.601,-0.056 v 0 c 0.711,0.031 1.618,0.064 2.583,0.117 v 0 c 0.965,0.058 1.99,0.14 2.921,0.336 v 0 c 0.921,0.188 1.789,0.532 2.2,1.054 v 0 c 0.205,0.251 0.28,0.499 0.308,0.662 v 0 c 0.028,0.165 0.019,0.254 0.021,0.254 v 0 c 0,0 0,0 -10e-4,0 v 0 c -0.011,0 -0.091,-0.387 -0.517,-0.673"></path>
          </g>
        </g>
      </g>
    </g>
    <g id="g176">
      <g id="g178">
        <g id="g184">
          <g id="g186">
            <path id="path198" style="fill:url(#linearGradient196);stroke:none" d="m 105.298,38.86 c -0.507,-0.008 -0.975,-0.096 -1.29,-0.237 v 0 c -0.318,-0.139 -0.466,-0.305 -0.437,-0.348 v 0 c 0.032,-0.047 0.217,0.023 0.521,0.081 v 0 c 0.303,0.062 0.73,0.101 1.213,0.109 v 0 c 0.542,0.014 1.212,-0.029 1.908,-0.072 v 0 c 0.657,-0.039 1.339,-0.08 1.96,-0.072 v 0 c 0.637,0.006 1.208,0.069 1.606,0.167 v 0 c 0.377,0.087 0.6,0.19 0.624,0.198 v 0 c -0.024,-0.006 -0.249,-0.082 -0.616,-0.135 v 0 c -0.389,-0.058 -0.937,-0.076 -1.555,-0.035 v 0 c -1.193,0.071 -2.64,0.345 -3.806,0.345 v 0 c -0.043,0 -0.086,0 -0.128,-10e-4 m 6.105,-0.174 c 0.002,10e-4 0.003,10e-4 0.003,10e-4 v 0 c 0,0 0,0 -0.001,0 v 0 c 0,0 -0.001,-10e-4 -0.002,-10e-4"></path>
          </g>
        </g>
      </g>
    </g>
    <g id="g200">
      <g clip-path="url(#clipPath206)" id="g202">
        <g transform="translate(107.1817,38.1984)" id="g208">
          <path id="path210" style="fill:#005e39;fill-opacity:1;fill-rule:nonzero;stroke:none" d="M 0,0 C 1.407,-0.403 2.996,-1.1 4.479,-1.805 5.223,-2.15 5.936,-2.471 6.633,-2.659 7.329,-2.851 8.034,-2.9 8.738,-2.833 c 1.411,0.141 2.704,0.616 3.606,0.943 0.907,0.34 1.504,0.859 1.504,0.859 0,0 -0.528,-0.67 -1.359,-1.246 -0.416,-0.287 -0.922,-0.62 -1.521,-0.956 C 10.37,-3.565 9.676,-3.906 8.865,-4.147 8.06,-4.394 7.107,-4.501 6.175,-4.402 5.242,-4.309 4.364,-4.064 3.555,-3.826 1.939,-3.33 0.484,-2.873 -0.744,-2.519 -2.968,-1.86 -4.761,-0.992 -4.647,-0.268 -4.538,0.441 -2.431,0.718 0,0"></path>
        </g>
      </g>
    </g>
    <g id="g212">
      <g id="g214">
        <g id="g220">
          <g id="g222">
            <path id="path234" style="fill:url(#linearGradient232);stroke:none" d="m 102.585,38.217 c -0.116,-0.724 1.679,-1.591 3.903,-2.25 v 0 c 1.229,-0.355 2.682,-0.81 4.298,-1.307 v 0 c 0.81,-0.239 1.686,-0.484 2.621,-0.577 v 0 c 0.933,-0.098 1.885,0.009 2.689,0.256 v 0 c 0.811,0.24 1.505,0.581 2.104,0.913 v 0 c 0.599,0.336 1.104,0.67 1.522,0.955 v 0 c 0.829,0.578 1.305,0.963 1.308,0.96 v 0 c 0,0.003 -0.546,-0.231 -1.454,-0.573 v 0 c -0.904,-0.325 -2.194,-0.801 -3.606,-0.941 v 0 c -0.704,-0.067 -1.41,-0.018 -2.106,0.174 v 0 c -0.696,0.188 -1.409,0.509 -2.153,0.853 v 0 c -1.483,0.705 -3.072,1.403 -4.48,1.806 v 0 c -0.991,0.292 -1.928,0.42 -2.698,0.42 v 0 c -1.118,0 -1.883,-0.269 -1.948,-0.689"></path>
          </g>
        </g>
      </g>
    </g>
    <g id="g236">
      <g id="g238">
        <g id="g244">
          <g id="g246">
            <path id="path260" style="fill:url(#linearGradient258);stroke:none" d="m 103.021,37.985 c 0.006,-0.066 0.349,-0.081 0.885,-0.176 v 0 c 0.537,-0.093 1.269,-0.274 2.074,-0.518 v 0 c 1.763,-0.513 4.211,-1.526 6.328,-2.081 v 0 c 1.056,-0.278 2.039,-0.41 2.743,-0.351 v 0 c 0.698,0.051 1.081,0.273 1.093,0.274 v 0 c -0.01,10e-4 -0.392,-0.189 -1.06,-0.199 v 0 c -0.676,-0.023 -1.607,0.153 -2.622,0.472 v 0 c -2.033,0.634 -4.424,1.756 -6.349,2.324 v 0 c -0.822,0.25 -1.602,0.39 -2.175,0.403 v 0 c -0.04,10e-4 -0.08,0.002 -0.118,0.002 v 0 c -0.504,0 -0.806,-0.094 -0.799,-0.15 m 13.123,-2.852 c 0,0 0,0 0,-0.001 v 0 c 0,0.001 0,0.001 0,0.001 v 0 c 0,0 0,0 0,0"></path>
          </g>
        </g>
      </g>
    </g>
    <g id="g262">
      <g clip-path="url(#clipPath268)" id="g264">
        <g transform="translate(103.3589,37.5266)" id="g270">
          <path id="path272" style="fill:#005e39;fill-opacity:1;fill-rule:nonzero;stroke:none" d="m 0,0 c 0,0 -0.034,-0.136 -0.055,-0.373 -0.01,-0.113 -1.615,0.665 -1.615,0.665 0.154,0.882 0.446,1.762 0.903,2.563 0.454,0.801 1.068,1.513 1.778,2.084 C 1.722,5.514 2.52,5.952 3.347,6.274 3.761,6.436 4.185,6.569 4.614,6.675 4.829,6.729 5.046,6.774 5.266,6.813 5.493,6.852 5.69,6.884 5.962,6.906 L 6.074,5.215 C 5.939,5.205 5.735,5.177 5.561,5.145 5.381,5.112 5.2,5.074 5.02,5.029 4.661,4.941 4.306,4.829 3.962,4.696 3.276,4.428 2.632,4.07 2.077,3.622 0.955,2.729 0.24,1.441 0,0"></path>
        </g>
        <g transform="translate(103.0142,37.5866)" id="g274">
          <path id="path276" style="fill:#009852;fill-opacity:1;fill-rule:nonzero;stroke:none" d="m 0,0 -1.264,0.221 c 0.154,0.875 0.443,1.748 0.896,2.542 0.45,0.795 1.06,1.501 1.764,2.068 C 2.1,5.4 2.892,5.836 3.715,6.156 4.126,6.316 4.547,6.449 4.974,6.554 5.411,6.659 5.813,6.74 6.311,6.783 L 6.396,5.505 C 5.674,5.435 4.888,5.237 4.18,4.961 3.464,4.682 2.789,4.308 2.202,3.833 1.013,2.893 0.25,1.509 0,0"></path>
        </g>
        <g transform="translate(102.4732,37.6818)" id="g278">
          <path id="path280" style="fill:#54ab75;fill-opacity:1;fill-rule:nonzero;stroke:none" d="m 0,0 -0.612,0.106 c 0.152,0.866 0.438,1.726 0.883,2.506 0.441,0.784 1.042,1.477 1.736,2.036 0.695,0.56 1.476,0.991 2.289,1.309 0.408,0.158 0.824,0.289 1.246,0.394 0.431,0.102 0.833,0.183 1.317,0.225 L 6.901,5.957 C 5.275,5.779 3.682,5.189 2.398,4.165 1.76,3.652 1.214,3.02 0.812,2.306 0.405,1.593 0.142,0.805 0,0"></path>
        </g>
        <g transform="translate(109.7759,43.6213)" id="g282">
          <path id="path284" style="fill:#009250;fill-opacity:1;fill-rule:nonzero;stroke:none" d="m 0,0 c 0.042,-0.466 -0.094,-0.859 -0.305,-0.877 -0.211,-0.02 -0.416,0.342 -0.459,0.808 -0.041,0.466 0.095,0.859 0.306,0.878 C -0.248,0.828 -0.042,0.466 0,0"></path>
        </g>
      </g>
    </g>
    <g id="g286">
      <g id="g288">
        <g id="g294">
          <g id="g296">
            <path id="path310" style="fill:url(#linearGradient308);stroke:none" d="M 98.428,41.603 C 98.073,41.222 97.574,40.671 97.212,39.82 v 0 C 97.039,39.393 96.9,38.873 96.957,38.263 v 0 c 0.047,-0.605 0.36,-1.277 0.842,-1.736 v 0 c 0.477,-0.467 1.055,-0.74 1.602,-0.885 v 0 c 0.551,-0.144 1.089,-0.165 1.583,-0.099 v 0 c 0.84,0.11 1.62,0.624 1.922,1.298 v 0 c 0.151,0.328 0.159,0.658 0.067,0.872 v 0 c -0.09,0.216 -0.258,0.316 -0.434,0.346 v 0 c -0.118,0.019 -0.236,0.013 -0.35,0.007 v 0 c -0.061,-0.002 -0.119,-0.005 -0.177,-0.004 v 0 c -0.227,0.228 -0.994,0.14 -1.388,0.085 v 0 c -0.416,-0.064 -1.001,-0.075 -1.398,0.077 v 0 c -0.198,0.074 -0.366,0.175 -0.507,0.39 v 0 c -0.139,0.211 -0.22,0.534 -0.234,0.873 v 0 c -0.031,0.69 0.145,1.398 0.285,1.888 v 0 c 0.145,0.497 0.262,0.802 0.26,0.802 v 0 c 0.001,-0.004 -0.241,-0.198 -0.602,-0.574"></path>
          </g>
        </g>
      </g>
    </g>
    <g id="g312">
      <g id="g314">
        <g id="g320">
          <g id="g322">
            <path id="path336" style="fill:url(#linearGradient334);stroke:none" d="M 98.428,41.603 C 98.073,41.222 97.574,40.671 97.212,39.82 v 0 C 97.039,39.393 96.9,38.873 96.957,38.263 v 0 c 0.047,-0.605 0.36,-1.277 0.842,-1.736 v 0 c 0.477,-0.467 1.055,-0.74 1.602,-0.885 v 0 c 0.551,-0.144 1.089,-0.165 1.583,-0.099 v 0 c 0.84,0.11 1.62,0.624 1.922,1.298 v 0 c -1.052,-1.714 -3.89,1.187 -4.187,1.773 v 0 c -0.139,0.211 -0.22,0.534 -0.234,0.873 v 0 c -0.031,0.69 0.145,1.398 0.285,1.888 v 0 c 0.145,0.497 0.262,0.802 0.26,0.802 v 0 c 0.001,-0.004 -0.241,-0.198 -0.602,-0.574"></path>
          </g>
        </g>
      </g>
    </g>
    <g id="g338">
      <g id="g340">
        <g id="g346">
          <g id="g348">
            <path id="path362" style="fill:url(#linearGradient360);stroke:none" d="m 97.839,39.884 c 0.01,0 -0.22,-0.525 -0.233,-1.277 v 0 c -0.005,-0.371 0.054,-0.794 0.199,-1.185 v 0 c 0.144,-0.393 0.37,-0.746 0.605,-1.008 v 0 c 0.406,-0.459 0.875,-0.646 0.918,-0.57 v 0 c 0.047,0.081 -0.308,0.374 -0.673,0.788 v 0 c -0.199,0.224 -0.419,0.519 -0.579,0.862 v 0 c -0.164,0.342 -0.268,0.729 -0.305,1.089 v 0 c -0.077,0.723 0.076,1.301 0.068,1.301 v 0 c 0,0 0,0 0,0"></path>
          </g>
        </g>
      </g>
    </g>
    <g id="g364">
      <g clip-path="url(#clipPath370)" id="g366">
        <g transform="translate(202.9243,38.2863)" id="g372">
          <path id="path374" style="fill:#009852;fill-opacity:1;fill-rule:nonzero;stroke:none" d="M 0,0 H 0.354 L 1.482,-1.691 2.611,0 H 2.966 V -3.099 H 2.615 v 2.51 L 1.487,-2.249 H 1.469 L 0.341,-0.594 V -3.099 H 0 Z"></path>
        </g>
        <g transform="translate(207.8413,35.5104)" id="g376">
          <path id="path378" style="fill:#009852;fill-opacity:1;fill-rule:nonzero;stroke:none" d="M 0,0 C 0.784,0 1.284,0.531 1.284,1.218 V 1.227 C 1.284,1.912 0.784,2.452 0,2.452 H -0.726 V 0 Z M -1.075,2.776 H 0 c 0.974,0 1.647,-0.669 1.647,-1.541 V 1.227 C 1.647,0.354 0.974,-0.323 0,-0.323 h -1.075 z"></path>
        </g>
        <g transform="translate(211.5737,38.7199)" id="g380">
          <path id="path382" style="fill:#009852;fill-opacity:1;fill-rule:nonzero;stroke:none" d="M 0,0 H 0.313 L -1.74,-4.099 h -0.314 z"></path>
        </g>
        <g transform="translate(214.2134,36.8215)" id="g384">
          <path id="path386" style="fill:#009852;fill-opacity:1;fill-rule:nonzero;stroke:none" d="m 0,0 c 0.282,0 0.478,0.13 0.478,0.357 v 0.011 c 0,0.212 -0.174,0.347 -0.461,0.347 H -0.574 L -0.574,0 Z M -0.872,0.986 H 0.027 C 0.282,0.986 0.493,0.905 0.623,0.774 0.721,0.683 0.786,0.547 0.786,0.385 V 0.374 c 0,-0.326 -0.217,-0.521 -0.52,-0.591 L 0.889,-1.024 H 0.521 l -0.581,0.758 h -0.01 -0.504 v -0.758 h -0.298 z m 2.553,-1.062 v 0.011 c 0,0.981 -0.765,1.783 -1.779,1.783 -1.018,0 -1.788,-0.813 -1.788,-1.794 v -0.011 c 0,-0.98 0.765,-1.783 1.779,-1.783 1.018,0 1.788,0.813 1.788,1.794 m -3.745,-0.011 v 0.011 c 0,1.068 0.867,1.962 1.966,1.962 1.101,0 1.957,-0.884 1.957,-1.951 v -0.011 c 0,-1.068 -0.867,-1.962 -1.966,-1.962 -1.101,0 -1.957,0.884 -1.957,1.951"></path>
        </g>
      </g>
    </g>
  </g>
</svg>
